G04 #@! TF.GenerationSoftware,KiCad,Pcbnew,5.1.6-c6e7f7d~86~ubuntu18.04.1*
G04 #@! TF.CreationDate,2020-06-15T00:20:06-04:00*
G04 #@! TF.ProjectId,flashing-led,666c6173-6869-46e6-972d-6c65642e6b69,1.0*
G04 #@! TF.SameCoordinates,Original*
G04 #@! TF.FileFunction,Copper,L1,Top*
G04 #@! TF.FilePolarity,Positive*
%FSLAX46Y46*%
G04 Gerber Fmt 4.6, Leading zero omitted, Abs format (unit mm)*
G04 Created by KiCad (PCBNEW 5.1.6-c6e7f7d~86~ubuntu18.04.1) date 2020-06-15 00:20:06*
%MOMM*%
%LPD*%
G01*
G04 APERTURE LIST*
G04 #@! TA.AperFunction,SMDPad,CuDef*
%ADD10R,1.600000X2.200000*%
G04 #@! TD*
G04 #@! TA.AperFunction,SMDPad,CuDef*
%ADD11R,1.900000X1.000000*%
G04 #@! TD*
G04 #@! TA.AperFunction,SMDPad,CuDef*
%ADD12R,1.900000X1.800000*%
G04 #@! TD*
G04 #@! TA.AperFunction,SMDPad,CuDef*
%ADD13R,1.300000X1.650000*%
G04 #@! TD*
G04 #@! TA.AperFunction,SMDPad,CuDef*
%ADD14R,1.550000X1.425000*%
G04 #@! TD*
G04 #@! TA.AperFunction,SMDPad,CuDef*
%ADD15R,1.380000X0.450000*%
G04 #@! TD*
G04 #@! TA.AperFunction,ViaPad*
%ADD16C,0.800000*%
G04 #@! TD*
G04 #@! TA.AperFunction,Conductor*
%ADD17C,0.250000*%
G04 #@! TD*
G04 #@! TA.AperFunction,Conductor*
%ADD18C,0.254000*%
G04 #@! TD*
G04 APERTURE END LIST*
G04 #@! TA.AperFunction,SMDPad,CuDef*
G36*
G01*
X150800750Y-92174000D02*
X151713250Y-92174000D01*
G75*
G02*
X151957000Y-92417750I0J-243750D01*
G01*
X151957000Y-92905250D01*
G75*
G02*
X151713250Y-93149000I-243750J0D01*
G01*
X150800750Y-93149000D01*
G75*
G02*
X150557000Y-92905250I0J243750D01*
G01*
X150557000Y-92417750D01*
G75*
G02*
X150800750Y-92174000I243750J0D01*
G01*
G37*
G04 #@! TD.AperFunction*
G04 #@! TA.AperFunction,SMDPad,CuDef*
G36*
G01*
X150800750Y-94049000D02*
X151713250Y-94049000D01*
G75*
G02*
X151957000Y-94292750I0J-243750D01*
G01*
X151957000Y-94780250D01*
G75*
G02*
X151713250Y-95024000I-243750J0D01*
G01*
X150800750Y-95024000D01*
G75*
G02*
X150557000Y-94780250I0J243750D01*
G01*
X150557000Y-94292750D01*
G75*
G02*
X150800750Y-94049000I243750J0D01*
G01*
G37*
G04 #@! TD.AperFunction*
D10*
X139700000Y-94464000D03*
X139700000Y-91464000D03*
G04 #@! TA.AperFunction,SMDPad,CuDef*
G36*
G01*
X138275000Y-98500250D02*
X138275000Y-97587750D01*
G75*
G02*
X138518750Y-97344000I243750J0D01*
G01*
X139006250Y-97344000D01*
G75*
G02*
X139250000Y-97587750I0J-243750D01*
G01*
X139250000Y-98500250D01*
G75*
G02*
X139006250Y-98744000I-243750J0D01*
G01*
X138518750Y-98744000D01*
G75*
G02*
X138275000Y-98500250I0J243750D01*
G01*
G37*
G04 #@! TD.AperFunction*
G04 #@! TA.AperFunction,SMDPad,CuDef*
G36*
G01*
X140150000Y-98500250D02*
X140150000Y-97587750D01*
G75*
G02*
X140393750Y-97344000I243750J0D01*
G01*
X140881250Y-97344000D01*
G75*
G02*
X141125000Y-97587750I0J-243750D01*
G01*
X141125000Y-98500250D01*
G75*
G02*
X140881250Y-98744000I-243750J0D01*
G01*
X140393750Y-98744000D01*
G75*
G02*
X140150000Y-98500250I0J243750D01*
G01*
G37*
G04 #@! TD.AperFunction*
G04 #@! TA.AperFunction,SMDPad,CuDef*
G36*
G01*
X147770000Y-98500250D02*
X147770000Y-97587750D01*
G75*
G02*
X148013750Y-97344000I243750J0D01*
G01*
X148501250Y-97344000D01*
G75*
G02*
X148745000Y-97587750I0J-243750D01*
G01*
X148745000Y-98500250D01*
G75*
G02*
X148501250Y-98744000I-243750J0D01*
G01*
X148013750Y-98744000D01*
G75*
G02*
X147770000Y-98500250I0J243750D01*
G01*
G37*
G04 #@! TD.AperFunction*
G04 #@! TA.AperFunction,SMDPad,CuDef*
G36*
G01*
X145895000Y-98500250D02*
X145895000Y-97587750D01*
G75*
G02*
X146138750Y-97344000I243750J0D01*
G01*
X146626250Y-97344000D01*
G75*
G02*
X146870000Y-97587750I0J-243750D01*
G01*
X146870000Y-98500250D01*
G75*
G02*
X146626250Y-98744000I-243750J0D01*
G01*
X146138750Y-98744000D01*
G75*
G02*
X145895000Y-98500250I0J243750D01*
G01*
G37*
G04 #@! TD.AperFunction*
G04 #@! TA.AperFunction,SMDPad,CuDef*
G36*
G01*
X142085000Y-98500250D02*
X142085000Y-97587750D01*
G75*
G02*
X142328750Y-97344000I243750J0D01*
G01*
X142816250Y-97344000D01*
G75*
G02*
X143060000Y-97587750I0J-243750D01*
G01*
X143060000Y-98500250D01*
G75*
G02*
X142816250Y-98744000I-243750J0D01*
G01*
X142328750Y-98744000D01*
G75*
G02*
X142085000Y-98500250I0J243750D01*
G01*
G37*
G04 #@! TD.AperFunction*
G04 #@! TA.AperFunction,SMDPad,CuDef*
G36*
G01*
X143960000Y-98500250D02*
X143960000Y-97587750D01*
G75*
G02*
X144203750Y-97344000I243750J0D01*
G01*
X144691250Y-97344000D01*
G75*
G02*
X144935000Y-97587750I0J-243750D01*
G01*
X144935000Y-98500250D01*
G75*
G02*
X144691250Y-98744000I-243750J0D01*
G01*
X144203750Y-98744000D01*
G75*
G02*
X143960000Y-98500250I0J243750D01*
G01*
G37*
G04 #@! TD.AperFunction*
D11*
X157918000Y-92938000D03*
D12*
X157918000Y-95638000D03*
D13*
X157918000Y-91113000D03*
X157918000Y-97863000D03*
D14*
X155343000Y-92000500D03*
X155343000Y-96975500D03*
D15*
X155258000Y-93188000D03*
X155258000Y-93838000D03*
X155258000Y-94488000D03*
X155258000Y-95138000D03*
X155258000Y-95788000D03*
G04 #@! TA.AperFunction,SMDPad,CuDef*
G36*
G01*
X142600000Y-91844000D02*
X142600000Y-91544000D01*
G75*
G02*
X142750000Y-91394000I150000J0D01*
G01*
X144400000Y-91394000D01*
G75*
G02*
X144550000Y-91544000I0J-150000D01*
G01*
X144550000Y-91844000D01*
G75*
G02*
X144400000Y-91994000I-150000J0D01*
G01*
X142750000Y-91994000D01*
G75*
G02*
X142600000Y-91844000I0J150000D01*
G01*
G37*
G04 #@! TD.AperFunction*
G04 #@! TA.AperFunction,SMDPad,CuDef*
G36*
G01*
X142600000Y-93114000D02*
X142600000Y-92814000D01*
G75*
G02*
X142750000Y-92664000I150000J0D01*
G01*
X144400000Y-92664000D01*
G75*
G02*
X144550000Y-92814000I0J-150000D01*
G01*
X144550000Y-93114000D01*
G75*
G02*
X144400000Y-93264000I-150000J0D01*
G01*
X142750000Y-93264000D01*
G75*
G02*
X142600000Y-93114000I0J150000D01*
G01*
G37*
G04 #@! TD.AperFunction*
G04 #@! TA.AperFunction,SMDPad,CuDef*
G36*
G01*
X142600000Y-94384000D02*
X142600000Y-94084000D01*
G75*
G02*
X142750000Y-93934000I150000J0D01*
G01*
X144400000Y-93934000D01*
G75*
G02*
X144550000Y-94084000I0J-150000D01*
G01*
X144550000Y-94384000D01*
G75*
G02*
X144400000Y-94534000I-150000J0D01*
G01*
X142750000Y-94534000D01*
G75*
G02*
X142600000Y-94384000I0J150000D01*
G01*
G37*
G04 #@! TD.AperFunction*
G04 #@! TA.AperFunction,SMDPad,CuDef*
G36*
G01*
X142600000Y-95654000D02*
X142600000Y-95354000D01*
G75*
G02*
X142750000Y-95204000I150000J0D01*
G01*
X144400000Y-95204000D01*
G75*
G02*
X144550000Y-95354000I0J-150000D01*
G01*
X144550000Y-95654000D01*
G75*
G02*
X144400000Y-95804000I-150000J0D01*
G01*
X142750000Y-95804000D01*
G75*
G02*
X142600000Y-95654000I0J150000D01*
G01*
G37*
G04 #@! TD.AperFunction*
G04 #@! TA.AperFunction,SMDPad,CuDef*
G36*
G01*
X147550000Y-95654000D02*
X147550000Y-95354000D01*
G75*
G02*
X147700000Y-95204000I150000J0D01*
G01*
X149350000Y-95204000D01*
G75*
G02*
X149500000Y-95354000I0J-150000D01*
G01*
X149500000Y-95654000D01*
G75*
G02*
X149350000Y-95804000I-150000J0D01*
G01*
X147700000Y-95804000D01*
G75*
G02*
X147550000Y-95654000I0J150000D01*
G01*
G37*
G04 #@! TD.AperFunction*
G04 #@! TA.AperFunction,SMDPad,CuDef*
G36*
G01*
X147550000Y-94384000D02*
X147550000Y-94084000D01*
G75*
G02*
X147700000Y-93934000I150000J0D01*
G01*
X149350000Y-93934000D01*
G75*
G02*
X149500000Y-94084000I0J-150000D01*
G01*
X149500000Y-94384000D01*
G75*
G02*
X149350000Y-94534000I-150000J0D01*
G01*
X147700000Y-94534000D01*
G75*
G02*
X147550000Y-94384000I0J150000D01*
G01*
G37*
G04 #@! TD.AperFunction*
G04 #@! TA.AperFunction,SMDPad,CuDef*
G36*
G01*
X147550000Y-93114000D02*
X147550000Y-92814000D01*
G75*
G02*
X147700000Y-92664000I150000J0D01*
G01*
X149350000Y-92664000D01*
G75*
G02*
X149500000Y-92814000I0J-150000D01*
G01*
X149500000Y-93114000D01*
G75*
G02*
X149350000Y-93264000I-150000J0D01*
G01*
X147700000Y-93264000D01*
G75*
G02*
X147550000Y-93114000I0J150000D01*
G01*
G37*
G04 #@! TD.AperFunction*
G04 #@! TA.AperFunction,SMDPad,CuDef*
G36*
G01*
X147550000Y-91844000D02*
X147550000Y-91544000D01*
G75*
G02*
X147700000Y-91394000I150000J0D01*
G01*
X149350000Y-91394000D01*
G75*
G02*
X149500000Y-91544000I0J-150000D01*
G01*
X149500000Y-91844000D01*
G75*
G02*
X149350000Y-91994000I-150000J0D01*
G01*
X147700000Y-91994000D01*
G75*
G02*
X147550000Y-91844000I0J150000D01*
G01*
G37*
G04 #@! TD.AperFunction*
D16*
X149479000Y-99822000D03*
X151003000Y-99822000D03*
X146431000Y-99822000D03*
X143383000Y-99822000D03*
X144907000Y-99822000D03*
X147955000Y-99822000D03*
X140335000Y-99822000D03*
X138811000Y-99822000D03*
X141859000Y-99822000D03*
X137287000Y-98298000D03*
X137287000Y-95250000D03*
X137287000Y-92202000D03*
X137287000Y-96774000D03*
X137287000Y-93726000D03*
X137287000Y-90678000D03*
X137287000Y-99822000D03*
X137287000Y-89154000D03*
X147955000Y-89154000D03*
X140335000Y-89154000D03*
X143383000Y-89154000D03*
X138811000Y-89154000D03*
X149479000Y-89154000D03*
X141859000Y-89154000D03*
X144907000Y-89154000D03*
X146431000Y-89154000D03*
X151003000Y-89154000D03*
X152527000Y-89154000D03*
X155575000Y-89154000D03*
X157099000Y-89154000D03*
X154051000Y-89154000D03*
X152527000Y-99822000D03*
X154051000Y-99822000D03*
X155575000Y-99822000D03*
X157099000Y-99822000D03*
X151003000Y-96520000D03*
X158648400Y-96761300D03*
X158648400Y-98285300D03*
X158648400Y-99809300D03*
X158648400Y-95237300D03*
X158648400Y-93713300D03*
X158648400Y-92189300D03*
X158648400Y-89141300D03*
X158648400Y-90665300D03*
X146939000Y-91694000D03*
X145161000Y-95504000D03*
D17*
X146685000Y-94234000D02*
X148525000Y-94234000D01*
X143575000Y-92964000D02*
X145415000Y-92964000D01*
X145415000Y-92964000D02*
X146685000Y-94234000D01*
X142113000Y-92964000D02*
X141732000Y-93345000D01*
X143575000Y-92964000D02*
X142113000Y-92964000D01*
X141732000Y-93345000D02*
X141732000Y-94107000D01*
X141732000Y-94107000D02*
X141375000Y-94464000D01*
X141375000Y-94464000D02*
X139700000Y-94464000D01*
X150416500Y-94536500D02*
X150114000Y-94234000D01*
X150114000Y-94234000D02*
X148525000Y-94234000D01*
X151765000Y-94536500D02*
X150416500Y-94536500D01*
X155258000Y-92085500D02*
X155343000Y-92000500D01*
X155258000Y-93188000D02*
X155258000Y-92085500D01*
X140637500Y-98044000D02*
X142572500Y-98044000D01*
X151765000Y-92661500D02*
X150416500Y-92661500D01*
X150416500Y-92661500D02*
X150114000Y-92964000D01*
X150114000Y-92964000D02*
X148525000Y-92964000D01*
X152654000Y-93027500D02*
X152654000Y-97663000D01*
X152273000Y-98044000D02*
X148257500Y-98044000D01*
X152654000Y-97663000D02*
X152273000Y-98044000D01*
X151384000Y-92661500D02*
X152288000Y-92661500D01*
X152288000Y-92661500D02*
X152654000Y-93027500D01*
X144447500Y-97013000D02*
X144447500Y-98044000D01*
X142303500Y-94234000D02*
X141986000Y-94551500D01*
X143575000Y-94234000D02*
X142303500Y-94234000D01*
X141986000Y-94551500D02*
X141986000Y-96393000D01*
X141986000Y-96393000D02*
X142303500Y-96710500D01*
X142303500Y-96710500D02*
X144145000Y-96710500D01*
X144145000Y-96710500D02*
X144447500Y-97013000D01*
X146939000Y-91694000D02*
X148525000Y-91694000D01*
X143575000Y-95504000D02*
X145161000Y-95504000D01*
X146382500Y-96725500D02*
X145161000Y-95504000D01*
X146382500Y-98044000D02*
X146382500Y-96725500D01*
X153954000Y-95788000D02*
X155258000Y-95788000D01*
X153555700Y-95389700D02*
X153954000Y-95788000D01*
X153555700Y-92087700D02*
X153555700Y-95389700D01*
X148525000Y-91694000D02*
X153162000Y-91694000D01*
X153162000Y-91694000D02*
X153555700Y-92087700D01*
D18*
G36*
X158725000Y-89672052D02*
G01*
X158692482Y-89662188D01*
X158568000Y-89649928D01*
X158203750Y-89653000D01*
X158045000Y-89811750D01*
X158045000Y-90986000D01*
X158065000Y-90986000D01*
X158065000Y-91240000D01*
X158045000Y-91240000D01*
X158045000Y-92811000D01*
X158065000Y-92811000D01*
X158065000Y-93065000D01*
X158045000Y-93065000D01*
X158045000Y-93914250D01*
X158203750Y-94073000D01*
X158725000Y-94075411D01*
X158725000Y-94100589D01*
X158203750Y-94103000D01*
X158045000Y-94261750D01*
X158045000Y-95511000D01*
X158065000Y-95511000D01*
X158065000Y-95765000D01*
X158045000Y-95765000D01*
X158045000Y-97736000D01*
X158065000Y-97736000D01*
X158065000Y-97990000D01*
X158045000Y-97990000D01*
X158045000Y-99164250D01*
X158203750Y-99323000D01*
X158568000Y-99326072D01*
X158692482Y-99313812D01*
X158725001Y-99303947D01*
X158725001Y-99924000D01*
X137185000Y-99924000D01*
X137185000Y-98744000D01*
X137636928Y-98744000D01*
X137649188Y-98868482D01*
X137685498Y-98988180D01*
X137744463Y-99098494D01*
X137823815Y-99195185D01*
X137920506Y-99274537D01*
X138030820Y-99333502D01*
X138150518Y-99369812D01*
X138275000Y-99382072D01*
X138476750Y-99379000D01*
X138635500Y-99220250D01*
X138635500Y-98171000D01*
X137798750Y-98171000D01*
X137640000Y-98329750D01*
X137636928Y-98744000D01*
X137185000Y-98744000D01*
X137185000Y-97344000D01*
X137636928Y-97344000D01*
X137640000Y-97758250D01*
X137798750Y-97917000D01*
X138635500Y-97917000D01*
X138635500Y-96867750D01*
X138476750Y-96709000D01*
X138275000Y-96705928D01*
X138150518Y-96718188D01*
X138030820Y-96754498D01*
X137920506Y-96813463D01*
X137823815Y-96892815D01*
X137744463Y-96989506D01*
X137685498Y-97099820D01*
X137649188Y-97219518D01*
X137636928Y-97344000D01*
X137185000Y-97344000D01*
X137185000Y-92564000D01*
X138261928Y-92564000D01*
X138274188Y-92688482D01*
X138310498Y-92808180D01*
X138369463Y-92918494D01*
X138406809Y-92964000D01*
X138369463Y-93009506D01*
X138310498Y-93119820D01*
X138274188Y-93239518D01*
X138261928Y-93364000D01*
X138261928Y-95564000D01*
X138274188Y-95688482D01*
X138310498Y-95808180D01*
X138369463Y-95918494D01*
X138448815Y-96015185D01*
X138545506Y-96094537D01*
X138655820Y-96153502D01*
X138775518Y-96189812D01*
X138900000Y-96202072D01*
X140500000Y-96202072D01*
X140624482Y-96189812D01*
X140744180Y-96153502D01*
X140854494Y-96094537D01*
X140951185Y-96015185D01*
X141030537Y-95918494D01*
X141089502Y-95808180D01*
X141125812Y-95688482D01*
X141138072Y-95564000D01*
X141138072Y-95224000D01*
X141226000Y-95224000D01*
X141226001Y-96355668D01*
X141222324Y-96393000D01*
X141226001Y-96430333D01*
X141236998Y-96541986D01*
X141242922Y-96561514D01*
X141280454Y-96685246D01*
X141351026Y-96817276D01*
X141397978Y-96874486D01*
X141403161Y-96880801D01*
X141371164Y-96854542D01*
X141218709Y-96773053D01*
X141053285Y-96722872D01*
X140881250Y-96705928D01*
X140393750Y-96705928D01*
X140221715Y-96722872D01*
X140056291Y-96773053D01*
X139903836Y-96854542D01*
X139770208Y-96964208D01*
X139764992Y-96970564D01*
X139701185Y-96892815D01*
X139604494Y-96813463D01*
X139494180Y-96754498D01*
X139374482Y-96718188D01*
X139250000Y-96705928D01*
X139048250Y-96709000D01*
X138889500Y-96867750D01*
X138889500Y-97917000D01*
X138909500Y-97917000D01*
X138909500Y-98171000D01*
X138889500Y-98171000D01*
X138889500Y-99220250D01*
X139048250Y-99379000D01*
X139250000Y-99382072D01*
X139374482Y-99369812D01*
X139494180Y-99333502D01*
X139604494Y-99274537D01*
X139701185Y-99195185D01*
X139764992Y-99117436D01*
X139770208Y-99123792D01*
X139903836Y-99233458D01*
X140056291Y-99314947D01*
X140221715Y-99365128D01*
X140393750Y-99382072D01*
X140881250Y-99382072D01*
X141053285Y-99365128D01*
X141218709Y-99314947D01*
X141371164Y-99233458D01*
X141504792Y-99123792D01*
X141605000Y-99001689D01*
X141705208Y-99123792D01*
X141838836Y-99233458D01*
X141991291Y-99314947D01*
X142156715Y-99365128D01*
X142328750Y-99382072D01*
X142816250Y-99382072D01*
X142988285Y-99365128D01*
X143153709Y-99314947D01*
X143306164Y-99233458D01*
X143439792Y-99123792D01*
X143510000Y-99038244D01*
X143580208Y-99123792D01*
X143713836Y-99233458D01*
X143866291Y-99314947D01*
X144031715Y-99365128D01*
X144203750Y-99382072D01*
X144691250Y-99382072D01*
X144863285Y-99365128D01*
X145028709Y-99314947D01*
X145181164Y-99233458D01*
X145314792Y-99123792D01*
X145415000Y-99001689D01*
X145515208Y-99123792D01*
X145648836Y-99233458D01*
X145801291Y-99314947D01*
X145966715Y-99365128D01*
X146138750Y-99382072D01*
X146626250Y-99382072D01*
X146798285Y-99365128D01*
X146963709Y-99314947D01*
X147116164Y-99233458D01*
X147249792Y-99123792D01*
X147320000Y-99038244D01*
X147390208Y-99123792D01*
X147523836Y-99233458D01*
X147676291Y-99314947D01*
X147841715Y-99365128D01*
X148013750Y-99382072D01*
X148501250Y-99382072D01*
X148673285Y-99365128D01*
X148838709Y-99314947D01*
X148991164Y-99233458D01*
X149124792Y-99123792D01*
X149234458Y-98990164D01*
X149315947Y-98837709D01*
X149326173Y-98804000D01*
X152235678Y-98804000D01*
X152273000Y-98807676D01*
X152310322Y-98804000D01*
X152310333Y-98804000D01*
X152421986Y-98793003D01*
X152565247Y-98749546D01*
X152697276Y-98678974D01*
X152813001Y-98584001D01*
X152836804Y-98554997D01*
X153164997Y-98226804D01*
X153194001Y-98203001D01*
X153288974Y-98087276D01*
X153359546Y-97955247D01*
X153403003Y-97811986D01*
X153414000Y-97700333D01*
X153414000Y-97700324D01*
X153415213Y-97688000D01*
X153929928Y-97688000D01*
X153942188Y-97812482D01*
X153978498Y-97932180D01*
X154037463Y-98042494D01*
X154116815Y-98139185D01*
X154213506Y-98218537D01*
X154323820Y-98277502D01*
X154443518Y-98313812D01*
X154568000Y-98326072D01*
X155057250Y-98323000D01*
X155216000Y-98164250D01*
X155216000Y-97102500D01*
X154091750Y-97102500D01*
X153933000Y-97261250D01*
X153929928Y-97688000D01*
X153415213Y-97688000D01*
X153417676Y-97663001D01*
X153414000Y-97625678D01*
X153414000Y-96328002D01*
X153529724Y-96422974D01*
X153661753Y-96493546D01*
X153805014Y-96537003D01*
X153916667Y-96548000D01*
X153916676Y-96548000D01*
X153931990Y-96549508D01*
X153933000Y-96689750D01*
X154091750Y-96848500D01*
X155216000Y-96848500D01*
X155216000Y-96828500D01*
X155470000Y-96828500D01*
X155470000Y-96848500D01*
X155490000Y-96848500D01*
X155490000Y-97102500D01*
X155470000Y-97102500D01*
X155470000Y-98164250D01*
X155628750Y-98323000D01*
X156118000Y-98326072D01*
X156242482Y-98313812D01*
X156362180Y-98277502D01*
X156472494Y-98218537D01*
X156569185Y-98139185D01*
X156648537Y-98042494D01*
X156676595Y-97990002D01*
X156791748Y-97990002D01*
X156633000Y-98148750D01*
X156629928Y-98688000D01*
X156642188Y-98812482D01*
X156678498Y-98932180D01*
X156737463Y-99042494D01*
X156816815Y-99139185D01*
X156913506Y-99218537D01*
X157023820Y-99277502D01*
X157143518Y-99313812D01*
X157268000Y-99326072D01*
X157632250Y-99323000D01*
X157791000Y-99164250D01*
X157791000Y-97990000D01*
X157771000Y-97990000D01*
X157771000Y-97736000D01*
X157791000Y-97736000D01*
X157791000Y-95765000D01*
X157771000Y-95765000D01*
X157771000Y-95511000D01*
X157791000Y-95511000D01*
X157791000Y-94261750D01*
X157632250Y-94103000D01*
X156968000Y-94099928D01*
X156843518Y-94112188D01*
X156723820Y-94148498D01*
X156613506Y-94207463D01*
X156583063Y-94232447D01*
X156576223Y-94163000D01*
X156586072Y-94063000D01*
X156586072Y-93946023D01*
X156613506Y-93968537D01*
X156723820Y-94027502D01*
X156843518Y-94063812D01*
X156968000Y-94076072D01*
X157632250Y-94073000D01*
X157791000Y-93914250D01*
X157791000Y-93065000D01*
X157771000Y-93065000D01*
X157771000Y-92811000D01*
X157791000Y-92811000D01*
X157791000Y-91240000D01*
X157771000Y-91240000D01*
X157771000Y-90986000D01*
X157791000Y-90986000D01*
X157791000Y-89811750D01*
X157632250Y-89653000D01*
X157268000Y-89649928D01*
X157143518Y-89662188D01*
X157023820Y-89698498D01*
X156913506Y-89757463D01*
X156816815Y-89836815D01*
X156737463Y-89933506D01*
X156678498Y-90043820D01*
X156642188Y-90163518D01*
X156629928Y-90288000D01*
X156633000Y-90827250D01*
X156791748Y-90985998D01*
X156676595Y-90985998D01*
X156648537Y-90933506D01*
X156569185Y-90836815D01*
X156472494Y-90757463D01*
X156362180Y-90698498D01*
X156242482Y-90662188D01*
X156118000Y-90649928D01*
X155628750Y-90653000D01*
X155470000Y-90811750D01*
X155470000Y-91873500D01*
X155490000Y-91873500D01*
X155490000Y-92127500D01*
X155470000Y-92127500D01*
X155470000Y-92147500D01*
X155216000Y-92147500D01*
X155216000Y-92127500D01*
X155196000Y-92127500D01*
X155196000Y-91873500D01*
X155216000Y-91873500D01*
X155216000Y-90811750D01*
X155057250Y-90653000D01*
X154568000Y-90649928D01*
X154443518Y-90662188D01*
X154323820Y-90698498D01*
X154213506Y-90757463D01*
X154116815Y-90836815D01*
X154037463Y-90933506D01*
X153978498Y-91043820D01*
X153942188Y-91163518D01*
X153929928Y-91288000D01*
X153930647Y-91387846D01*
X153725804Y-91183003D01*
X153702001Y-91153999D01*
X153586276Y-91059026D01*
X153454247Y-90988454D01*
X153310986Y-90944997D01*
X153199333Y-90934000D01*
X153199322Y-90934000D01*
X153162000Y-90930324D01*
X153124678Y-90934000D01*
X149842976Y-90934000D01*
X149787829Y-90888742D01*
X149651582Y-90815916D01*
X149503745Y-90771071D01*
X149350000Y-90755928D01*
X147700000Y-90755928D01*
X147546255Y-90771071D01*
X147459895Y-90797267D01*
X147429256Y-90776795D01*
X147240898Y-90698774D01*
X147040939Y-90659000D01*
X146837061Y-90659000D01*
X146637102Y-90698774D01*
X146448744Y-90776795D01*
X146279226Y-90890063D01*
X146135063Y-91034226D01*
X146021795Y-91203744D01*
X145943774Y-91392102D01*
X145904000Y-91592061D01*
X145904000Y-91795939D01*
X145943774Y-91995898D01*
X146021795Y-92184256D01*
X146135063Y-92353774D01*
X146279226Y-92497937D01*
X146448744Y-92611205D01*
X146637102Y-92689226D01*
X146837061Y-92729000D01*
X146920300Y-92729000D01*
X146911928Y-92814000D01*
X146911928Y-93114000D01*
X146927071Y-93267745D01*
X146971916Y-93415582D01*
X147003141Y-93474000D01*
X146999802Y-93474000D01*
X145978804Y-92453003D01*
X145955001Y-92423999D01*
X145839276Y-92329026D01*
X145707247Y-92258454D01*
X145563986Y-92214997D01*
X145452333Y-92204000D01*
X145452322Y-92204000D01*
X145415000Y-92200324D01*
X145377678Y-92204000D01*
X145149870Y-92204000D01*
X145175812Y-92118482D01*
X145188072Y-91994000D01*
X145185000Y-91979750D01*
X145026250Y-91821000D01*
X143702000Y-91821000D01*
X143702000Y-91841000D01*
X143448000Y-91841000D01*
X143448000Y-91821000D01*
X142123750Y-91821000D01*
X141965000Y-91979750D01*
X141961928Y-91994000D01*
X141974188Y-92118482D01*
X142002321Y-92211224D01*
X141964014Y-92214997D01*
X141820753Y-92258454D01*
X141688724Y-92329026D01*
X141572999Y-92423999D01*
X141549196Y-92453003D01*
X141221003Y-92781196D01*
X141191999Y-92804999D01*
X141153939Y-92851376D01*
X141097026Y-92920724D01*
X141073894Y-92964001D01*
X141040054Y-93027311D01*
X141030537Y-93009506D01*
X140993191Y-92964000D01*
X141030537Y-92918494D01*
X141089502Y-92808180D01*
X141125812Y-92688482D01*
X141138072Y-92564000D01*
X141135000Y-91749750D01*
X140976250Y-91591000D01*
X139827000Y-91591000D01*
X139827000Y-91611000D01*
X139573000Y-91611000D01*
X139573000Y-91591000D01*
X138423750Y-91591000D01*
X138265000Y-91749750D01*
X138261928Y-92564000D01*
X137185000Y-92564000D01*
X137185000Y-91394000D01*
X141961928Y-91394000D01*
X141965000Y-91408250D01*
X142123750Y-91567000D01*
X143448000Y-91567000D01*
X143448000Y-90917750D01*
X143702000Y-90917750D01*
X143702000Y-91567000D01*
X145026250Y-91567000D01*
X145185000Y-91408250D01*
X145188072Y-91394000D01*
X145175812Y-91269518D01*
X145139502Y-91149820D01*
X145080537Y-91039506D01*
X145001185Y-90942815D01*
X144904494Y-90863463D01*
X144794180Y-90804498D01*
X144674482Y-90768188D01*
X144550000Y-90755928D01*
X143860750Y-90759000D01*
X143702000Y-90917750D01*
X143448000Y-90917750D01*
X143289250Y-90759000D01*
X142600000Y-90755928D01*
X142475518Y-90768188D01*
X142355820Y-90804498D01*
X142245506Y-90863463D01*
X142148815Y-90942815D01*
X142069463Y-91039506D01*
X142010498Y-91149820D01*
X141974188Y-91269518D01*
X141961928Y-91394000D01*
X137185000Y-91394000D01*
X137185000Y-90364000D01*
X138261928Y-90364000D01*
X138265000Y-91178250D01*
X138423750Y-91337000D01*
X139573000Y-91337000D01*
X139573000Y-89887750D01*
X139827000Y-89887750D01*
X139827000Y-91337000D01*
X140976250Y-91337000D01*
X141135000Y-91178250D01*
X141138072Y-90364000D01*
X141125812Y-90239518D01*
X141089502Y-90119820D01*
X141030537Y-90009506D01*
X140951185Y-89912815D01*
X140854494Y-89833463D01*
X140744180Y-89774498D01*
X140624482Y-89738188D01*
X140500000Y-89725928D01*
X139985750Y-89729000D01*
X139827000Y-89887750D01*
X139573000Y-89887750D01*
X139414250Y-89729000D01*
X138900000Y-89725928D01*
X138775518Y-89738188D01*
X138655820Y-89774498D01*
X138545506Y-89833463D01*
X138448815Y-89912815D01*
X138369463Y-90009506D01*
X138310498Y-90119820D01*
X138274188Y-90239518D01*
X138261928Y-90364000D01*
X137185000Y-90364000D01*
X137185000Y-89052000D01*
X158725000Y-89052000D01*
X158725000Y-89672052D01*
G37*
X158725000Y-89672052D02*
X158692482Y-89662188D01*
X158568000Y-89649928D01*
X158203750Y-89653000D01*
X158045000Y-89811750D01*
X158045000Y-90986000D01*
X158065000Y-90986000D01*
X158065000Y-91240000D01*
X158045000Y-91240000D01*
X158045000Y-92811000D01*
X158065000Y-92811000D01*
X158065000Y-93065000D01*
X158045000Y-93065000D01*
X158045000Y-93914250D01*
X158203750Y-94073000D01*
X158725000Y-94075411D01*
X158725000Y-94100589D01*
X158203750Y-94103000D01*
X158045000Y-94261750D01*
X158045000Y-95511000D01*
X158065000Y-95511000D01*
X158065000Y-95765000D01*
X158045000Y-95765000D01*
X158045000Y-97736000D01*
X158065000Y-97736000D01*
X158065000Y-97990000D01*
X158045000Y-97990000D01*
X158045000Y-99164250D01*
X158203750Y-99323000D01*
X158568000Y-99326072D01*
X158692482Y-99313812D01*
X158725001Y-99303947D01*
X158725001Y-99924000D01*
X137185000Y-99924000D01*
X137185000Y-98744000D01*
X137636928Y-98744000D01*
X137649188Y-98868482D01*
X137685498Y-98988180D01*
X137744463Y-99098494D01*
X137823815Y-99195185D01*
X137920506Y-99274537D01*
X138030820Y-99333502D01*
X138150518Y-99369812D01*
X138275000Y-99382072D01*
X138476750Y-99379000D01*
X138635500Y-99220250D01*
X138635500Y-98171000D01*
X137798750Y-98171000D01*
X137640000Y-98329750D01*
X137636928Y-98744000D01*
X137185000Y-98744000D01*
X137185000Y-97344000D01*
X137636928Y-97344000D01*
X137640000Y-97758250D01*
X137798750Y-97917000D01*
X138635500Y-97917000D01*
X138635500Y-96867750D01*
X138476750Y-96709000D01*
X138275000Y-96705928D01*
X138150518Y-96718188D01*
X138030820Y-96754498D01*
X137920506Y-96813463D01*
X137823815Y-96892815D01*
X137744463Y-96989506D01*
X137685498Y-97099820D01*
X137649188Y-97219518D01*
X137636928Y-97344000D01*
X137185000Y-97344000D01*
X137185000Y-92564000D01*
X138261928Y-92564000D01*
X138274188Y-92688482D01*
X138310498Y-92808180D01*
X138369463Y-92918494D01*
X138406809Y-92964000D01*
X138369463Y-93009506D01*
X138310498Y-93119820D01*
X138274188Y-93239518D01*
X138261928Y-93364000D01*
X138261928Y-95564000D01*
X138274188Y-95688482D01*
X138310498Y-95808180D01*
X138369463Y-95918494D01*
X138448815Y-96015185D01*
X138545506Y-96094537D01*
X138655820Y-96153502D01*
X138775518Y-96189812D01*
X138900000Y-96202072D01*
X140500000Y-96202072D01*
X140624482Y-96189812D01*
X140744180Y-96153502D01*
X140854494Y-96094537D01*
X140951185Y-96015185D01*
X141030537Y-95918494D01*
X141089502Y-95808180D01*
X141125812Y-95688482D01*
X141138072Y-95564000D01*
X141138072Y-95224000D01*
X141226000Y-95224000D01*
X141226001Y-96355668D01*
X141222324Y-96393000D01*
X141226001Y-96430333D01*
X141236998Y-96541986D01*
X141242922Y-96561514D01*
X141280454Y-96685246D01*
X141351026Y-96817276D01*
X141397978Y-96874486D01*
X141403161Y-96880801D01*
X141371164Y-96854542D01*
X141218709Y-96773053D01*
X141053285Y-96722872D01*
X140881250Y-96705928D01*
X140393750Y-96705928D01*
X140221715Y-96722872D01*
X140056291Y-96773053D01*
X139903836Y-96854542D01*
X139770208Y-96964208D01*
X139764992Y-96970564D01*
X139701185Y-96892815D01*
X139604494Y-96813463D01*
X139494180Y-96754498D01*
X139374482Y-96718188D01*
X139250000Y-96705928D01*
X139048250Y-96709000D01*
X138889500Y-96867750D01*
X138889500Y-97917000D01*
X138909500Y-97917000D01*
X138909500Y-98171000D01*
X138889500Y-98171000D01*
X138889500Y-99220250D01*
X139048250Y-99379000D01*
X139250000Y-99382072D01*
X139374482Y-99369812D01*
X139494180Y-99333502D01*
X139604494Y-99274537D01*
X139701185Y-99195185D01*
X139764992Y-99117436D01*
X139770208Y-99123792D01*
X139903836Y-99233458D01*
X140056291Y-99314947D01*
X140221715Y-99365128D01*
X140393750Y-99382072D01*
X140881250Y-99382072D01*
X141053285Y-99365128D01*
X141218709Y-99314947D01*
X141371164Y-99233458D01*
X141504792Y-99123792D01*
X141605000Y-99001689D01*
X141705208Y-99123792D01*
X141838836Y-99233458D01*
X141991291Y-99314947D01*
X142156715Y-99365128D01*
X142328750Y-99382072D01*
X142816250Y-99382072D01*
X142988285Y-99365128D01*
X143153709Y-99314947D01*
X143306164Y-99233458D01*
X143439792Y-99123792D01*
X143510000Y-99038244D01*
X143580208Y-99123792D01*
X143713836Y-99233458D01*
X143866291Y-99314947D01*
X144031715Y-99365128D01*
X144203750Y-99382072D01*
X144691250Y-99382072D01*
X144863285Y-99365128D01*
X145028709Y-99314947D01*
X145181164Y-99233458D01*
X145314792Y-99123792D01*
X145415000Y-99001689D01*
X145515208Y-99123792D01*
X145648836Y-99233458D01*
X145801291Y-99314947D01*
X145966715Y-99365128D01*
X146138750Y-99382072D01*
X146626250Y-99382072D01*
X146798285Y-99365128D01*
X146963709Y-99314947D01*
X147116164Y-99233458D01*
X147249792Y-99123792D01*
X147320000Y-99038244D01*
X147390208Y-99123792D01*
X147523836Y-99233458D01*
X147676291Y-99314947D01*
X147841715Y-99365128D01*
X148013750Y-99382072D01*
X148501250Y-99382072D01*
X148673285Y-99365128D01*
X148838709Y-99314947D01*
X148991164Y-99233458D01*
X149124792Y-99123792D01*
X149234458Y-98990164D01*
X149315947Y-98837709D01*
X149326173Y-98804000D01*
X152235678Y-98804000D01*
X152273000Y-98807676D01*
X152310322Y-98804000D01*
X152310333Y-98804000D01*
X152421986Y-98793003D01*
X152565247Y-98749546D01*
X152697276Y-98678974D01*
X152813001Y-98584001D01*
X152836804Y-98554997D01*
X153164997Y-98226804D01*
X153194001Y-98203001D01*
X153288974Y-98087276D01*
X153359546Y-97955247D01*
X153403003Y-97811986D01*
X153414000Y-97700333D01*
X153414000Y-97700324D01*
X153415213Y-97688000D01*
X153929928Y-97688000D01*
X153942188Y-97812482D01*
X153978498Y-97932180D01*
X154037463Y-98042494D01*
X154116815Y-98139185D01*
X154213506Y-98218537D01*
X154323820Y-98277502D01*
X154443518Y-98313812D01*
X154568000Y-98326072D01*
X155057250Y-98323000D01*
X155216000Y-98164250D01*
X155216000Y-97102500D01*
X154091750Y-97102500D01*
X153933000Y-97261250D01*
X153929928Y-97688000D01*
X153415213Y-97688000D01*
X153417676Y-97663001D01*
X153414000Y-97625678D01*
X153414000Y-96328002D01*
X153529724Y-96422974D01*
X153661753Y-96493546D01*
X153805014Y-96537003D01*
X153916667Y-96548000D01*
X153916676Y-96548000D01*
X153931990Y-96549508D01*
X153933000Y-96689750D01*
X154091750Y-96848500D01*
X155216000Y-96848500D01*
X155216000Y-96828500D01*
X155470000Y-96828500D01*
X155470000Y-96848500D01*
X155490000Y-96848500D01*
X155490000Y-97102500D01*
X155470000Y-97102500D01*
X155470000Y-98164250D01*
X155628750Y-98323000D01*
X156118000Y-98326072D01*
X156242482Y-98313812D01*
X156362180Y-98277502D01*
X156472494Y-98218537D01*
X156569185Y-98139185D01*
X156648537Y-98042494D01*
X156676595Y-97990002D01*
X156791748Y-97990002D01*
X156633000Y-98148750D01*
X156629928Y-98688000D01*
X156642188Y-98812482D01*
X156678498Y-98932180D01*
X156737463Y-99042494D01*
X156816815Y-99139185D01*
X156913506Y-99218537D01*
X157023820Y-99277502D01*
X157143518Y-99313812D01*
X157268000Y-99326072D01*
X157632250Y-99323000D01*
X157791000Y-99164250D01*
X157791000Y-97990000D01*
X157771000Y-97990000D01*
X157771000Y-97736000D01*
X157791000Y-97736000D01*
X157791000Y-95765000D01*
X157771000Y-95765000D01*
X157771000Y-95511000D01*
X157791000Y-95511000D01*
X157791000Y-94261750D01*
X157632250Y-94103000D01*
X156968000Y-94099928D01*
X156843518Y-94112188D01*
X156723820Y-94148498D01*
X156613506Y-94207463D01*
X156583063Y-94232447D01*
X156576223Y-94163000D01*
X156586072Y-94063000D01*
X156586072Y-93946023D01*
X156613506Y-93968537D01*
X156723820Y-94027502D01*
X156843518Y-94063812D01*
X156968000Y-94076072D01*
X157632250Y-94073000D01*
X157791000Y-93914250D01*
X157791000Y-93065000D01*
X157771000Y-93065000D01*
X157771000Y-92811000D01*
X157791000Y-92811000D01*
X157791000Y-91240000D01*
X157771000Y-91240000D01*
X157771000Y-90986000D01*
X157791000Y-90986000D01*
X157791000Y-89811750D01*
X157632250Y-89653000D01*
X157268000Y-89649928D01*
X157143518Y-89662188D01*
X157023820Y-89698498D01*
X156913506Y-89757463D01*
X156816815Y-89836815D01*
X156737463Y-89933506D01*
X156678498Y-90043820D01*
X156642188Y-90163518D01*
X156629928Y-90288000D01*
X156633000Y-90827250D01*
X156791748Y-90985998D01*
X156676595Y-90985998D01*
X156648537Y-90933506D01*
X156569185Y-90836815D01*
X156472494Y-90757463D01*
X156362180Y-90698498D01*
X156242482Y-90662188D01*
X156118000Y-90649928D01*
X155628750Y-90653000D01*
X155470000Y-90811750D01*
X155470000Y-91873500D01*
X155490000Y-91873500D01*
X155490000Y-92127500D01*
X155470000Y-92127500D01*
X155470000Y-92147500D01*
X155216000Y-92147500D01*
X155216000Y-92127500D01*
X155196000Y-92127500D01*
X155196000Y-91873500D01*
X155216000Y-91873500D01*
X155216000Y-90811750D01*
X155057250Y-90653000D01*
X154568000Y-90649928D01*
X154443518Y-90662188D01*
X154323820Y-90698498D01*
X154213506Y-90757463D01*
X154116815Y-90836815D01*
X154037463Y-90933506D01*
X153978498Y-91043820D01*
X153942188Y-91163518D01*
X153929928Y-91288000D01*
X153930647Y-91387846D01*
X153725804Y-91183003D01*
X153702001Y-91153999D01*
X153586276Y-91059026D01*
X153454247Y-90988454D01*
X153310986Y-90944997D01*
X153199333Y-90934000D01*
X153199322Y-90934000D01*
X153162000Y-90930324D01*
X153124678Y-90934000D01*
X149842976Y-90934000D01*
X149787829Y-90888742D01*
X149651582Y-90815916D01*
X149503745Y-90771071D01*
X149350000Y-90755928D01*
X147700000Y-90755928D01*
X147546255Y-90771071D01*
X147459895Y-90797267D01*
X147429256Y-90776795D01*
X147240898Y-90698774D01*
X147040939Y-90659000D01*
X146837061Y-90659000D01*
X146637102Y-90698774D01*
X146448744Y-90776795D01*
X146279226Y-90890063D01*
X146135063Y-91034226D01*
X146021795Y-91203744D01*
X145943774Y-91392102D01*
X145904000Y-91592061D01*
X145904000Y-91795939D01*
X145943774Y-91995898D01*
X146021795Y-92184256D01*
X146135063Y-92353774D01*
X146279226Y-92497937D01*
X146448744Y-92611205D01*
X146637102Y-92689226D01*
X146837061Y-92729000D01*
X146920300Y-92729000D01*
X146911928Y-92814000D01*
X146911928Y-93114000D01*
X146927071Y-93267745D01*
X146971916Y-93415582D01*
X147003141Y-93474000D01*
X146999802Y-93474000D01*
X145978804Y-92453003D01*
X145955001Y-92423999D01*
X145839276Y-92329026D01*
X145707247Y-92258454D01*
X145563986Y-92214997D01*
X145452333Y-92204000D01*
X145452322Y-92204000D01*
X145415000Y-92200324D01*
X145377678Y-92204000D01*
X145149870Y-92204000D01*
X145175812Y-92118482D01*
X145188072Y-91994000D01*
X145185000Y-91979750D01*
X145026250Y-91821000D01*
X143702000Y-91821000D01*
X143702000Y-91841000D01*
X143448000Y-91841000D01*
X143448000Y-91821000D01*
X142123750Y-91821000D01*
X141965000Y-91979750D01*
X141961928Y-91994000D01*
X141974188Y-92118482D01*
X142002321Y-92211224D01*
X141964014Y-92214997D01*
X141820753Y-92258454D01*
X141688724Y-92329026D01*
X141572999Y-92423999D01*
X141549196Y-92453003D01*
X141221003Y-92781196D01*
X141191999Y-92804999D01*
X141153939Y-92851376D01*
X141097026Y-92920724D01*
X141073894Y-92964001D01*
X141040054Y-93027311D01*
X141030537Y-93009506D01*
X140993191Y-92964000D01*
X141030537Y-92918494D01*
X141089502Y-92808180D01*
X141125812Y-92688482D01*
X141138072Y-92564000D01*
X141135000Y-91749750D01*
X140976250Y-91591000D01*
X139827000Y-91591000D01*
X139827000Y-91611000D01*
X139573000Y-91611000D01*
X139573000Y-91591000D01*
X138423750Y-91591000D01*
X138265000Y-91749750D01*
X138261928Y-92564000D01*
X137185000Y-92564000D01*
X137185000Y-91394000D01*
X141961928Y-91394000D01*
X141965000Y-91408250D01*
X142123750Y-91567000D01*
X143448000Y-91567000D01*
X143448000Y-90917750D01*
X143702000Y-90917750D01*
X143702000Y-91567000D01*
X145026250Y-91567000D01*
X145185000Y-91408250D01*
X145188072Y-91394000D01*
X145175812Y-91269518D01*
X145139502Y-91149820D01*
X145080537Y-91039506D01*
X145001185Y-90942815D01*
X144904494Y-90863463D01*
X144794180Y-90804498D01*
X144674482Y-90768188D01*
X144550000Y-90755928D01*
X143860750Y-90759000D01*
X143702000Y-90917750D01*
X143448000Y-90917750D01*
X143289250Y-90759000D01*
X142600000Y-90755928D01*
X142475518Y-90768188D01*
X142355820Y-90804498D01*
X142245506Y-90863463D01*
X142148815Y-90942815D01*
X142069463Y-91039506D01*
X142010498Y-91149820D01*
X141974188Y-91269518D01*
X141961928Y-91394000D01*
X137185000Y-91394000D01*
X137185000Y-90364000D01*
X138261928Y-90364000D01*
X138265000Y-91178250D01*
X138423750Y-91337000D01*
X139573000Y-91337000D01*
X139573000Y-89887750D01*
X139827000Y-89887750D01*
X139827000Y-91337000D01*
X140976250Y-91337000D01*
X141135000Y-91178250D01*
X141138072Y-90364000D01*
X141125812Y-90239518D01*
X141089502Y-90119820D01*
X141030537Y-90009506D01*
X140951185Y-89912815D01*
X140854494Y-89833463D01*
X140744180Y-89774498D01*
X140624482Y-89738188D01*
X140500000Y-89725928D01*
X139985750Y-89729000D01*
X139827000Y-89887750D01*
X139573000Y-89887750D01*
X139414250Y-89729000D01*
X138900000Y-89725928D01*
X138775518Y-89738188D01*
X138655820Y-89774498D01*
X138545506Y-89833463D01*
X138448815Y-89912815D01*
X138369463Y-90009506D01*
X138310498Y-90119820D01*
X138274188Y-90239518D01*
X138261928Y-90364000D01*
X137185000Y-90364000D01*
X137185000Y-89052000D01*
X158725000Y-89052000D01*
X158725000Y-89672052D01*
G36*
X146121200Y-94745002D02*
G01*
X146144999Y-94774001D01*
X146260724Y-94868974D01*
X146392753Y-94939546D01*
X146536014Y-94983003D01*
X146647667Y-94994000D01*
X146647676Y-94994000D01*
X146684999Y-94997676D01*
X146722322Y-94994000D01*
X147003141Y-94994000D01*
X146971916Y-95052418D01*
X146927071Y-95200255D01*
X146911928Y-95354000D01*
X146911928Y-95654000D01*
X146927071Y-95807745D01*
X146971916Y-95955582D01*
X147044742Y-96091829D01*
X147142749Y-96211251D01*
X147262171Y-96309258D01*
X147398418Y-96382084D01*
X147546255Y-96426929D01*
X147700000Y-96442072D01*
X149350000Y-96442072D01*
X149503745Y-96426929D01*
X149651582Y-96382084D01*
X149787829Y-96309258D01*
X149907251Y-96211251D01*
X150005258Y-96091829D01*
X150078084Y-95955582D01*
X150122929Y-95807745D01*
X150138072Y-95654000D01*
X150138072Y-95356105D01*
X150177208Y-95403792D01*
X150310836Y-95513458D01*
X150463291Y-95594947D01*
X150628715Y-95645128D01*
X150800750Y-95662072D01*
X151713250Y-95662072D01*
X151885285Y-95645128D01*
X151894001Y-95642484D01*
X151894001Y-97284000D01*
X149326173Y-97284000D01*
X149315947Y-97250291D01*
X149234458Y-97097836D01*
X149124792Y-96964208D01*
X148991164Y-96854542D01*
X148838709Y-96773053D01*
X148673285Y-96722872D01*
X148501250Y-96705928D01*
X148013750Y-96705928D01*
X147841715Y-96722872D01*
X147676291Y-96773053D01*
X147523836Y-96854542D01*
X147390208Y-96964208D01*
X147320000Y-97049756D01*
X147249792Y-96964208D01*
X147142500Y-96876155D01*
X147142500Y-96762823D01*
X147146176Y-96725500D01*
X147142500Y-96688177D01*
X147142500Y-96688167D01*
X147131503Y-96576514D01*
X147088046Y-96433253D01*
X147017474Y-96301224D01*
X146922501Y-96185499D01*
X146893503Y-96161701D01*
X146196000Y-95464199D01*
X146196000Y-95402061D01*
X146156226Y-95202102D01*
X146078205Y-95013744D01*
X145964937Y-94844226D01*
X145820774Y-94700063D01*
X145651256Y-94586795D01*
X145462898Y-94508774D01*
X145262939Y-94469000D01*
X145179700Y-94469000D01*
X145188072Y-94384000D01*
X145188072Y-94084000D01*
X145172929Y-93930255D01*
X145128084Y-93782418D01*
X145096859Y-93724000D01*
X145100199Y-93724000D01*
X146121200Y-94745002D01*
G37*
X146121200Y-94745002D02*
X146144999Y-94774001D01*
X146260724Y-94868974D01*
X146392753Y-94939546D01*
X146536014Y-94983003D01*
X146647667Y-94994000D01*
X146647676Y-94994000D01*
X146684999Y-94997676D01*
X146722322Y-94994000D01*
X147003141Y-94994000D01*
X146971916Y-95052418D01*
X146927071Y-95200255D01*
X146911928Y-95354000D01*
X146911928Y-95654000D01*
X146927071Y-95807745D01*
X146971916Y-95955582D01*
X147044742Y-96091829D01*
X147142749Y-96211251D01*
X147262171Y-96309258D01*
X147398418Y-96382084D01*
X147546255Y-96426929D01*
X147700000Y-96442072D01*
X149350000Y-96442072D01*
X149503745Y-96426929D01*
X149651582Y-96382084D01*
X149787829Y-96309258D01*
X149907251Y-96211251D01*
X150005258Y-96091829D01*
X150078084Y-95955582D01*
X150122929Y-95807745D01*
X150138072Y-95654000D01*
X150138072Y-95356105D01*
X150177208Y-95403792D01*
X150310836Y-95513458D01*
X150463291Y-95594947D01*
X150628715Y-95645128D01*
X150800750Y-95662072D01*
X151713250Y-95662072D01*
X151885285Y-95645128D01*
X151894001Y-95642484D01*
X151894001Y-97284000D01*
X149326173Y-97284000D01*
X149315947Y-97250291D01*
X149234458Y-97097836D01*
X149124792Y-96964208D01*
X148991164Y-96854542D01*
X148838709Y-96773053D01*
X148673285Y-96722872D01*
X148501250Y-96705928D01*
X148013750Y-96705928D01*
X147841715Y-96722872D01*
X147676291Y-96773053D01*
X147523836Y-96854542D01*
X147390208Y-96964208D01*
X147320000Y-97049756D01*
X147249792Y-96964208D01*
X147142500Y-96876155D01*
X147142500Y-96762823D01*
X147146176Y-96725500D01*
X147142500Y-96688177D01*
X147142500Y-96688167D01*
X147131503Y-96576514D01*
X147088046Y-96433253D01*
X147017474Y-96301224D01*
X146922501Y-96185499D01*
X146893503Y-96161701D01*
X146196000Y-95464199D01*
X146196000Y-95402061D01*
X146156226Y-95202102D01*
X146078205Y-95013744D01*
X145964937Y-94844226D01*
X145820774Y-94700063D01*
X145651256Y-94586795D01*
X145462898Y-94508774D01*
X145262939Y-94469000D01*
X145179700Y-94469000D01*
X145188072Y-94384000D01*
X145188072Y-94084000D01*
X145172929Y-93930255D01*
X145128084Y-93782418D01*
X145096859Y-93724000D01*
X145100199Y-93724000D01*
X146121200Y-94745002D01*
G36*
X158725001Y-98679000D02*
G01*
X157353000Y-98679000D01*
X157353000Y-90297000D01*
X158725000Y-90297000D01*
X158725001Y-98679000D01*
G37*
X158725001Y-98679000D02*
X157353000Y-98679000D01*
X157353000Y-90297000D01*
X158725000Y-90297000D01*
X158725001Y-98679000D01*
M02*
