M48
; DRILL file {KiCad 5.1.6-c6e7f7d~86~ubuntu18.04.1} date Mon Jun 15 00:11:44 2020
; FORMAT={-:-/ absolute / inch / decimal}
; #@! TF.CreationDate,2020-06-15T00:11:44-04:00
; #@! TF.GenerationSoftware,Kicad,Pcbnew,5.1.6-c6e7f7d~86~ubuntu18.04.1
; #@! TF.FileFunction,Plated,1,2,PTH
FMAT,2
INCH
T1C0.0157
%
G90
G05
T1
X5.405Y-3.51
X5.405Y-3.57
X5.405Y-3.63
X5.405Y-3.69
X5.405Y-3.75
X5.405Y-3.81
X5.405Y-3.87
X5.405Y-3.93
X5.465Y-3.51
X5.465Y-3.93
X5.525Y-3.51
X5.525Y-3.93
X5.585Y-3.51
X5.585Y-3.93
X5.645Y-3.51
X5.645Y-3.93
X5.705Y-3.51
X5.705Y-3.93
X5.715Y-3.76
X5.765Y-3.51
X5.765Y-3.93
X5.785Y-3.61
X5.825Y-3.51
X5.825Y-3.93
X5.885Y-3.51
X5.885Y-3.93
X5.945Y-3.51
X5.945Y-3.8
X5.945Y-3.93
X6.005Y-3.51
X6.005Y-3.93
X6.065Y-3.51
X6.065Y-3.93
X6.125Y-3.51
X6.125Y-3.93
X6.185Y-3.51
X6.185Y-3.93
X6.246Y-3.5095
X6.246Y-3.5695
X6.246Y-3.6295
X6.246Y-3.6895
X6.246Y-3.7495
X6.246Y-3.8095
X6.246Y-3.8695
X6.246Y-3.9295
T0
M30
