G04 #@! TF.GenerationSoftware,KiCad,Pcbnew,5.1.6-c6e7f7d~86~ubuntu18.04.1*
G04 #@! TF.CreationDate,2020-06-15T00:12:38-04:00*
G04 #@! TF.ProjectId,flashing-led,666c6173-6869-46e6-972d-6c65642e6b69,1.0*
G04 #@! TF.SameCoordinates,Original*
G04 #@! TF.FileFunction,Paste,Top*
G04 #@! TF.FilePolarity,Positive*
%FSLAX46Y46*%
G04 Gerber Fmt 4.6, Leading zero omitted, Abs format (unit mm)*
G04 Created by KiCad (PCBNEW 5.1.6-c6e7f7d~86~ubuntu18.04.1) date 2020-06-15 00:12:38*
%MOMM*%
%LPD*%
G01*
G04 APERTURE LIST*
%ADD10R,1.600000X2.200000*%
%ADD11R,1.900000X1.000000*%
%ADD12R,1.900000X1.800000*%
%ADD13R,1.300000X1.650000*%
%ADD14R,1.550000X1.425000*%
%ADD15R,1.380000X0.450000*%
G04 APERTURE END LIST*
G36*
G01*
X150800750Y-92174000D02*
X151713250Y-92174000D01*
G75*
G02*
X151957000Y-92417750I0J-243750D01*
G01*
X151957000Y-92905250D01*
G75*
G02*
X151713250Y-93149000I-243750J0D01*
G01*
X150800750Y-93149000D01*
G75*
G02*
X150557000Y-92905250I0J243750D01*
G01*
X150557000Y-92417750D01*
G75*
G02*
X150800750Y-92174000I243750J0D01*
G01*
G37*
G36*
G01*
X150800750Y-94049000D02*
X151713250Y-94049000D01*
G75*
G02*
X151957000Y-94292750I0J-243750D01*
G01*
X151957000Y-94780250D01*
G75*
G02*
X151713250Y-95024000I-243750J0D01*
G01*
X150800750Y-95024000D01*
G75*
G02*
X150557000Y-94780250I0J243750D01*
G01*
X150557000Y-94292750D01*
G75*
G02*
X150800750Y-94049000I243750J0D01*
G01*
G37*
D10*
X139700000Y-94464000D03*
X139700000Y-91464000D03*
G36*
G01*
X138275000Y-98500250D02*
X138275000Y-97587750D01*
G75*
G02*
X138518750Y-97344000I243750J0D01*
G01*
X139006250Y-97344000D01*
G75*
G02*
X139250000Y-97587750I0J-243750D01*
G01*
X139250000Y-98500250D01*
G75*
G02*
X139006250Y-98744000I-243750J0D01*
G01*
X138518750Y-98744000D01*
G75*
G02*
X138275000Y-98500250I0J243750D01*
G01*
G37*
G36*
G01*
X140150000Y-98500250D02*
X140150000Y-97587750D01*
G75*
G02*
X140393750Y-97344000I243750J0D01*
G01*
X140881250Y-97344000D01*
G75*
G02*
X141125000Y-97587750I0J-243750D01*
G01*
X141125000Y-98500250D01*
G75*
G02*
X140881250Y-98744000I-243750J0D01*
G01*
X140393750Y-98744000D01*
G75*
G02*
X140150000Y-98500250I0J243750D01*
G01*
G37*
G36*
G01*
X147770000Y-98500250D02*
X147770000Y-97587750D01*
G75*
G02*
X148013750Y-97344000I243750J0D01*
G01*
X148501250Y-97344000D01*
G75*
G02*
X148745000Y-97587750I0J-243750D01*
G01*
X148745000Y-98500250D01*
G75*
G02*
X148501250Y-98744000I-243750J0D01*
G01*
X148013750Y-98744000D01*
G75*
G02*
X147770000Y-98500250I0J243750D01*
G01*
G37*
G36*
G01*
X145895000Y-98500250D02*
X145895000Y-97587750D01*
G75*
G02*
X146138750Y-97344000I243750J0D01*
G01*
X146626250Y-97344000D01*
G75*
G02*
X146870000Y-97587750I0J-243750D01*
G01*
X146870000Y-98500250D01*
G75*
G02*
X146626250Y-98744000I-243750J0D01*
G01*
X146138750Y-98744000D01*
G75*
G02*
X145895000Y-98500250I0J243750D01*
G01*
G37*
G36*
G01*
X142085000Y-98500250D02*
X142085000Y-97587750D01*
G75*
G02*
X142328750Y-97344000I243750J0D01*
G01*
X142816250Y-97344000D01*
G75*
G02*
X143060000Y-97587750I0J-243750D01*
G01*
X143060000Y-98500250D01*
G75*
G02*
X142816250Y-98744000I-243750J0D01*
G01*
X142328750Y-98744000D01*
G75*
G02*
X142085000Y-98500250I0J243750D01*
G01*
G37*
G36*
G01*
X143960000Y-98500250D02*
X143960000Y-97587750D01*
G75*
G02*
X144203750Y-97344000I243750J0D01*
G01*
X144691250Y-97344000D01*
G75*
G02*
X144935000Y-97587750I0J-243750D01*
G01*
X144935000Y-98500250D01*
G75*
G02*
X144691250Y-98744000I-243750J0D01*
G01*
X144203750Y-98744000D01*
G75*
G02*
X143960000Y-98500250I0J243750D01*
G01*
G37*
D11*
X157918000Y-92938000D03*
D12*
X157918000Y-95638000D03*
D13*
X157918000Y-91113000D03*
X157918000Y-97863000D03*
D14*
X155343000Y-92000500D03*
X155343000Y-96975500D03*
D15*
X155258000Y-93188000D03*
X155258000Y-93838000D03*
X155258000Y-94488000D03*
X155258000Y-95138000D03*
X155258000Y-95788000D03*
G36*
G01*
X142600000Y-91844000D02*
X142600000Y-91544000D01*
G75*
G02*
X142750000Y-91394000I150000J0D01*
G01*
X144400000Y-91394000D01*
G75*
G02*
X144550000Y-91544000I0J-150000D01*
G01*
X144550000Y-91844000D01*
G75*
G02*
X144400000Y-91994000I-150000J0D01*
G01*
X142750000Y-91994000D01*
G75*
G02*
X142600000Y-91844000I0J150000D01*
G01*
G37*
G36*
G01*
X142600000Y-93114000D02*
X142600000Y-92814000D01*
G75*
G02*
X142750000Y-92664000I150000J0D01*
G01*
X144400000Y-92664000D01*
G75*
G02*
X144550000Y-92814000I0J-150000D01*
G01*
X144550000Y-93114000D01*
G75*
G02*
X144400000Y-93264000I-150000J0D01*
G01*
X142750000Y-93264000D01*
G75*
G02*
X142600000Y-93114000I0J150000D01*
G01*
G37*
G36*
G01*
X142600000Y-94384000D02*
X142600000Y-94084000D01*
G75*
G02*
X142750000Y-93934000I150000J0D01*
G01*
X144400000Y-93934000D01*
G75*
G02*
X144550000Y-94084000I0J-150000D01*
G01*
X144550000Y-94384000D01*
G75*
G02*
X144400000Y-94534000I-150000J0D01*
G01*
X142750000Y-94534000D01*
G75*
G02*
X142600000Y-94384000I0J150000D01*
G01*
G37*
G36*
G01*
X142600000Y-95654000D02*
X142600000Y-95354000D01*
G75*
G02*
X142750000Y-95204000I150000J0D01*
G01*
X144400000Y-95204000D01*
G75*
G02*
X144550000Y-95354000I0J-150000D01*
G01*
X144550000Y-95654000D01*
G75*
G02*
X144400000Y-95804000I-150000J0D01*
G01*
X142750000Y-95804000D01*
G75*
G02*
X142600000Y-95654000I0J150000D01*
G01*
G37*
G36*
G01*
X147550000Y-95654000D02*
X147550000Y-95354000D01*
G75*
G02*
X147700000Y-95204000I150000J0D01*
G01*
X149350000Y-95204000D01*
G75*
G02*
X149500000Y-95354000I0J-150000D01*
G01*
X149500000Y-95654000D01*
G75*
G02*
X149350000Y-95804000I-150000J0D01*
G01*
X147700000Y-95804000D01*
G75*
G02*
X147550000Y-95654000I0J150000D01*
G01*
G37*
G36*
G01*
X147550000Y-94384000D02*
X147550000Y-94084000D01*
G75*
G02*
X147700000Y-93934000I150000J0D01*
G01*
X149350000Y-93934000D01*
G75*
G02*
X149500000Y-94084000I0J-150000D01*
G01*
X149500000Y-94384000D01*
G75*
G02*
X149350000Y-94534000I-150000J0D01*
G01*
X147700000Y-94534000D01*
G75*
G02*
X147550000Y-94384000I0J150000D01*
G01*
G37*
G36*
G01*
X147550000Y-93114000D02*
X147550000Y-92814000D01*
G75*
G02*
X147700000Y-92664000I150000J0D01*
G01*
X149350000Y-92664000D01*
G75*
G02*
X149500000Y-92814000I0J-150000D01*
G01*
X149500000Y-93114000D01*
G75*
G02*
X149350000Y-93264000I-150000J0D01*
G01*
X147700000Y-93264000D01*
G75*
G02*
X147550000Y-93114000I0J150000D01*
G01*
G37*
G36*
G01*
X147550000Y-91844000D02*
X147550000Y-91544000D01*
G75*
G02*
X147700000Y-91394000I150000J0D01*
G01*
X149350000Y-91394000D01*
G75*
G02*
X149500000Y-91544000I0J-150000D01*
G01*
X149500000Y-91844000D01*
G75*
G02*
X149350000Y-91994000I-150000J0D01*
G01*
X147700000Y-91994000D01*
G75*
G02*
X147550000Y-91844000I0J150000D01*
G01*
G37*
M02*
