G04 #@! TF.GenerationSoftware,KiCad,Pcbnew,5.1.6-c6e7f7d~86~ubuntu18.04.1*
G04 #@! TF.CreationDate,2020-06-15T00:12:38-04:00*
G04 #@! TF.ProjectId,flashing-led,666c6173-6869-46e6-972d-6c65642e6b69,1.0*
G04 #@! TF.SameCoordinates,Original*
G04 #@! TF.FileFunction,Soldermask,Top*
G04 #@! TF.FilePolarity,Negative*
%FSLAX46Y46*%
G04 Gerber Fmt 4.6, Leading zero omitted, Abs format (unit mm)*
G04 Created by KiCad (PCBNEW 5.1.6-c6e7f7d~86~ubuntu18.04.1) date 2020-06-15 00:12:38*
%MOMM*%
%LPD*%
G01*
G04 APERTURE LIST*
%ADD10C,0.100000*%
G04 APERTURE END LIST*
D10*
G36*
X144819468Y-97297565D02*
G01*
X144858138Y-97309296D01*
X144893777Y-97328346D01*
X144925017Y-97353983D01*
X144950654Y-97385223D01*
X144969704Y-97420862D01*
X144981435Y-97459532D01*
X144986000Y-97505888D01*
X144986000Y-98582112D01*
X144981435Y-98628468D01*
X144969704Y-98667138D01*
X144950654Y-98702777D01*
X144925017Y-98734017D01*
X144893777Y-98759654D01*
X144858138Y-98778704D01*
X144819468Y-98790435D01*
X144773112Y-98795000D01*
X144121888Y-98795000D01*
X144075532Y-98790435D01*
X144036862Y-98778704D01*
X144001223Y-98759654D01*
X143969983Y-98734017D01*
X143944346Y-98702777D01*
X143925296Y-98667138D01*
X143913565Y-98628468D01*
X143909000Y-98582112D01*
X143909000Y-97505888D01*
X143913565Y-97459532D01*
X143925296Y-97420862D01*
X143944346Y-97385223D01*
X143969983Y-97353983D01*
X144001223Y-97328346D01*
X144036862Y-97309296D01*
X144075532Y-97297565D01*
X144121888Y-97293000D01*
X144773112Y-97293000D01*
X144819468Y-97297565D01*
G37*
G36*
X142944468Y-97297565D02*
G01*
X142983138Y-97309296D01*
X143018777Y-97328346D01*
X143050017Y-97353983D01*
X143075654Y-97385223D01*
X143094704Y-97420862D01*
X143106435Y-97459532D01*
X143111000Y-97505888D01*
X143111000Y-98582112D01*
X143106435Y-98628468D01*
X143094704Y-98667138D01*
X143075654Y-98702777D01*
X143050017Y-98734017D01*
X143018777Y-98759654D01*
X142983138Y-98778704D01*
X142944468Y-98790435D01*
X142898112Y-98795000D01*
X142246888Y-98795000D01*
X142200532Y-98790435D01*
X142161862Y-98778704D01*
X142126223Y-98759654D01*
X142094983Y-98734017D01*
X142069346Y-98702777D01*
X142050296Y-98667138D01*
X142038565Y-98628468D01*
X142034000Y-98582112D01*
X142034000Y-97505888D01*
X142038565Y-97459532D01*
X142050296Y-97420862D01*
X142069346Y-97385223D01*
X142094983Y-97353983D01*
X142126223Y-97328346D01*
X142161862Y-97309296D01*
X142200532Y-97297565D01*
X142246888Y-97293000D01*
X142898112Y-97293000D01*
X142944468Y-97297565D01*
G37*
G36*
X141009468Y-97297565D02*
G01*
X141048138Y-97309296D01*
X141083777Y-97328346D01*
X141115017Y-97353983D01*
X141140654Y-97385223D01*
X141159704Y-97420862D01*
X141171435Y-97459532D01*
X141176000Y-97505888D01*
X141176000Y-98582112D01*
X141171435Y-98628468D01*
X141159704Y-98667138D01*
X141140654Y-98702777D01*
X141115017Y-98734017D01*
X141083777Y-98759654D01*
X141048138Y-98778704D01*
X141009468Y-98790435D01*
X140963112Y-98795000D01*
X140311888Y-98795000D01*
X140265532Y-98790435D01*
X140226862Y-98778704D01*
X140191223Y-98759654D01*
X140159983Y-98734017D01*
X140134346Y-98702777D01*
X140115296Y-98667138D01*
X140103565Y-98628468D01*
X140099000Y-98582112D01*
X140099000Y-97505888D01*
X140103565Y-97459532D01*
X140115296Y-97420862D01*
X140134346Y-97385223D01*
X140159983Y-97353983D01*
X140191223Y-97328346D01*
X140226862Y-97309296D01*
X140265532Y-97297565D01*
X140311888Y-97293000D01*
X140963112Y-97293000D01*
X141009468Y-97297565D01*
G37*
G36*
X139134468Y-97297565D02*
G01*
X139173138Y-97309296D01*
X139208777Y-97328346D01*
X139240017Y-97353983D01*
X139265654Y-97385223D01*
X139284704Y-97420862D01*
X139296435Y-97459532D01*
X139301000Y-97505888D01*
X139301000Y-98582112D01*
X139296435Y-98628468D01*
X139284704Y-98667138D01*
X139265654Y-98702777D01*
X139240017Y-98734017D01*
X139208777Y-98759654D01*
X139173138Y-98778704D01*
X139134468Y-98790435D01*
X139088112Y-98795000D01*
X138436888Y-98795000D01*
X138390532Y-98790435D01*
X138351862Y-98778704D01*
X138316223Y-98759654D01*
X138284983Y-98734017D01*
X138259346Y-98702777D01*
X138240296Y-98667138D01*
X138228565Y-98628468D01*
X138224000Y-98582112D01*
X138224000Y-97505888D01*
X138228565Y-97459532D01*
X138240296Y-97420862D01*
X138259346Y-97385223D01*
X138284983Y-97353983D01*
X138316223Y-97328346D01*
X138351862Y-97309296D01*
X138390532Y-97297565D01*
X138436888Y-97293000D01*
X139088112Y-97293000D01*
X139134468Y-97297565D01*
G37*
G36*
X148629468Y-97297565D02*
G01*
X148668138Y-97309296D01*
X148703777Y-97328346D01*
X148735017Y-97353983D01*
X148760654Y-97385223D01*
X148779704Y-97420862D01*
X148791435Y-97459532D01*
X148796000Y-97505888D01*
X148796000Y-98582112D01*
X148791435Y-98628468D01*
X148779704Y-98667138D01*
X148760654Y-98702777D01*
X148735017Y-98734017D01*
X148703777Y-98759654D01*
X148668138Y-98778704D01*
X148629468Y-98790435D01*
X148583112Y-98795000D01*
X147931888Y-98795000D01*
X147885532Y-98790435D01*
X147846862Y-98778704D01*
X147811223Y-98759654D01*
X147779983Y-98734017D01*
X147754346Y-98702777D01*
X147735296Y-98667138D01*
X147723565Y-98628468D01*
X147719000Y-98582112D01*
X147719000Y-97505888D01*
X147723565Y-97459532D01*
X147735296Y-97420862D01*
X147754346Y-97385223D01*
X147779983Y-97353983D01*
X147811223Y-97328346D01*
X147846862Y-97309296D01*
X147885532Y-97297565D01*
X147931888Y-97293000D01*
X148583112Y-97293000D01*
X148629468Y-97297565D01*
G37*
G36*
X146754468Y-97297565D02*
G01*
X146793138Y-97309296D01*
X146828777Y-97328346D01*
X146860017Y-97353983D01*
X146885654Y-97385223D01*
X146904704Y-97420862D01*
X146916435Y-97459532D01*
X146921000Y-97505888D01*
X146921000Y-98582112D01*
X146916435Y-98628468D01*
X146904704Y-98667138D01*
X146885654Y-98702777D01*
X146860017Y-98734017D01*
X146828777Y-98759654D01*
X146793138Y-98778704D01*
X146754468Y-98790435D01*
X146708112Y-98795000D01*
X146056888Y-98795000D01*
X146010532Y-98790435D01*
X145971862Y-98778704D01*
X145936223Y-98759654D01*
X145904983Y-98734017D01*
X145879346Y-98702777D01*
X145860296Y-98667138D01*
X145848565Y-98628468D01*
X145844000Y-98582112D01*
X145844000Y-97505888D01*
X145848565Y-97459532D01*
X145860296Y-97420862D01*
X145879346Y-97385223D01*
X145904983Y-97353983D01*
X145936223Y-97328346D01*
X145971862Y-97309296D01*
X146010532Y-97297565D01*
X146056888Y-97293000D01*
X146708112Y-97293000D01*
X146754468Y-97297565D01*
G37*
G36*
X158619000Y-98739000D02*
G01*
X157217000Y-98739000D01*
X157217000Y-96987000D01*
X158619000Y-96987000D01*
X158619000Y-98739000D01*
G37*
G36*
X156169000Y-92764000D02*
G01*
X156123999Y-92764000D01*
X156099613Y-92766402D01*
X156076164Y-92773515D01*
X156054553Y-92785066D01*
X156035611Y-92800611D01*
X156020066Y-92819553D01*
X156008515Y-92841164D01*
X156001402Y-92864613D01*
X155999000Y-92888999D01*
X155999000Y-96087001D01*
X156001402Y-96111387D01*
X156008515Y-96134836D01*
X156020066Y-96156447D01*
X156035611Y-96175389D01*
X156054553Y-96190934D01*
X156076164Y-96202485D01*
X156099613Y-96209598D01*
X156123999Y-96212000D01*
X156169000Y-96212000D01*
X156169000Y-97739000D01*
X154517000Y-97739000D01*
X154517000Y-91237000D01*
X156169000Y-91237000D01*
X156169000Y-92764000D01*
G37*
G36*
X158919000Y-96589000D02*
G01*
X156917000Y-96589000D01*
X156917000Y-94687000D01*
X158919000Y-94687000D01*
X158919000Y-96589000D01*
G37*
G36*
X144509928Y-95155764D02*
G01*
X144531009Y-95162160D01*
X144550445Y-95172548D01*
X144567476Y-95186524D01*
X144581452Y-95203555D01*
X144591840Y-95222991D01*
X144598236Y-95244072D01*
X144601000Y-95272140D01*
X144601000Y-95735860D01*
X144598236Y-95763928D01*
X144591840Y-95785009D01*
X144581452Y-95804445D01*
X144567476Y-95821476D01*
X144550445Y-95835452D01*
X144531009Y-95845840D01*
X144509928Y-95852236D01*
X144481860Y-95855000D01*
X142668140Y-95855000D01*
X142640072Y-95852236D01*
X142618991Y-95845840D01*
X142599555Y-95835452D01*
X142582524Y-95821476D01*
X142568548Y-95804445D01*
X142558160Y-95785009D01*
X142551764Y-95763928D01*
X142549000Y-95735860D01*
X142549000Y-95272140D01*
X142551764Y-95244072D01*
X142558160Y-95222991D01*
X142568548Y-95203555D01*
X142582524Y-95186524D01*
X142599555Y-95172548D01*
X142618991Y-95162160D01*
X142640072Y-95155764D01*
X142668140Y-95153000D01*
X144481860Y-95153000D01*
X144509928Y-95155764D01*
G37*
G36*
X149459928Y-95155764D02*
G01*
X149481009Y-95162160D01*
X149500445Y-95172548D01*
X149517476Y-95186524D01*
X149531452Y-95203555D01*
X149541840Y-95222991D01*
X149548236Y-95244072D01*
X149551000Y-95272140D01*
X149551000Y-95735860D01*
X149548236Y-95763928D01*
X149541840Y-95785009D01*
X149531452Y-95804445D01*
X149517476Y-95821476D01*
X149500445Y-95835452D01*
X149481009Y-95845840D01*
X149459928Y-95852236D01*
X149431860Y-95855000D01*
X147618140Y-95855000D01*
X147590072Y-95852236D01*
X147568991Y-95845840D01*
X147549555Y-95835452D01*
X147532524Y-95821476D01*
X147518548Y-95804445D01*
X147508160Y-95785009D01*
X147501764Y-95763928D01*
X147499000Y-95735860D01*
X147499000Y-95272140D01*
X147501764Y-95244072D01*
X147508160Y-95222991D01*
X147518548Y-95203555D01*
X147532524Y-95186524D01*
X147549555Y-95172548D01*
X147568991Y-95162160D01*
X147590072Y-95155764D01*
X147618140Y-95153000D01*
X149431860Y-95153000D01*
X149459928Y-95155764D01*
G37*
G36*
X140551000Y-95615000D02*
G01*
X138849000Y-95615000D01*
X138849000Y-93313000D01*
X140551000Y-93313000D01*
X140551000Y-95615000D01*
G37*
G36*
X151841468Y-94002565D02*
G01*
X151880138Y-94014296D01*
X151915777Y-94033346D01*
X151947017Y-94058983D01*
X151972654Y-94090223D01*
X151991704Y-94125862D01*
X152003435Y-94164532D01*
X152008000Y-94210888D01*
X152008000Y-94862112D01*
X152003435Y-94908468D01*
X151991704Y-94947138D01*
X151972654Y-94982777D01*
X151947017Y-95014017D01*
X151915777Y-95039654D01*
X151880138Y-95058704D01*
X151841468Y-95070435D01*
X151795112Y-95075000D01*
X150718888Y-95075000D01*
X150672532Y-95070435D01*
X150633862Y-95058704D01*
X150598223Y-95039654D01*
X150566983Y-95014017D01*
X150541346Y-94982777D01*
X150522296Y-94947138D01*
X150510565Y-94908468D01*
X150506000Y-94862112D01*
X150506000Y-94210888D01*
X150510565Y-94164532D01*
X150522296Y-94125862D01*
X150541346Y-94090223D01*
X150566983Y-94058983D01*
X150598223Y-94033346D01*
X150633862Y-94014296D01*
X150672532Y-94002565D01*
X150718888Y-93998000D01*
X151795112Y-93998000D01*
X151841468Y-94002565D01*
G37*
G36*
X149459928Y-93885764D02*
G01*
X149481009Y-93892160D01*
X149500445Y-93902548D01*
X149517476Y-93916524D01*
X149531452Y-93933555D01*
X149541840Y-93952991D01*
X149548236Y-93974072D01*
X149551000Y-94002140D01*
X149551000Y-94465860D01*
X149548236Y-94493928D01*
X149541840Y-94515009D01*
X149531452Y-94534445D01*
X149517476Y-94551476D01*
X149500445Y-94565452D01*
X149481009Y-94575840D01*
X149459928Y-94582236D01*
X149431860Y-94585000D01*
X147618140Y-94585000D01*
X147590072Y-94582236D01*
X147568991Y-94575840D01*
X147549555Y-94565452D01*
X147532524Y-94551476D01*
X147518548Y-94534445D01*
X147508160Y-94515009D01*
X147501764Y-94493928D01*
X147499000Y-94465860D01*
X147499000Y-94002140D01*
X147501764Y-93974072D01*
X147508160Y-93952991D01*
X147518548Y-93933555D01*
X147532524Y-93916524D01*
X147549555Y-93902548D01*
X147568991Y-93892160D01*
X147590072Y-93885764D01*
X147618140Y-93883000D01*
X149431860Y-93883000D01*
X149459928Y-93885764D01*
G37*
G36*
X144509928Y-93885764D02*
G01*
X144531009Y-93892160D01*
X144550445Y-93902548D01*
X144567476Y-93916524D01*
X144581452Y-93933555D01*
X144591840Y-93952991D01*
X144598236Y-93974072D01*
X144601000Y-94002140D01*
X144601000Y-94465860D01*
X144598236Y-94493928D01*
X144591840Y-94515009D01*
X144581452Y-94534445D01*
X144567476Y-94551476D01*
X144550445Y-94565452D01*
X144531009Y-94575840D01*
X144509928Y-94582236D01*
X144481860Y-94585000D01*
X142668140Y-94585000D01*
X142640072Y-94582236D01*
X142618991Y-94575840D01*
X142599555Y-94565452D01*
X142582524Y-94551476D01*
X142568548Y-94534445D01*
X142558160Y-94515009D01*
X142551764Y-94493928D01*
X142549000Y-94465860D01*
X142549000Y-94002140D01*
X142551764Y-93974072D01*
X142558160Y-93952991D01*
X142568548Y-93933555D01*
X142582524Y-93916524D01*
X142599555Y-93902548D01*
X142618991Y-93892160D01*
X142640072Y-93885764D01*
X142668140Y-93883000D01*
X144481860Y-93883000D01*
X144509928Y-93885764D01*
G37*
G36*
X158919000Y-93489000D02*
G01*
X156917000Y-93489000D01*
X156917000Y-92387000D01*
X158919000Y-92387000D01*
X158919000Y-93489000D01*
G37*
G36*
X144509928Y-92615764D02*
G01*
X144531009Y-92622160D01*
X144550445Y-92632548D01*
X144567476Y-92646524D01*
X144581452Y-92663555D01*
X144591840Y-92682991D01*
X144598236Y-92704072D01*
X144601000Y-92732140D01*
X144601000Y-93195860D01*
X144598236Y-93223928D01*
X144591840Y-93245009D01*
X144581452Y-93264445D01*
X144567476Y-93281476D01*
X144550445Y-93295452D01*
X144531009Y-93305840D01*
X144509928Y-93312236D01*
X144481860Y-93315000D01*
X142668140Y-93315000D01*
X142640072Y-93312236D01*
X142618991Y-93305840D01*
X142599555Y-93295452D01*
X142582524Y-93281476D01*
X142568548Y-93264445D01*
X142558160Y-93245009D01*
X142551764Y-93223928D01*
X142549000Y-93195860D01*
X142549000Y-92732140D01*
X142551764Y-92704072D01*
X142558160Y-92682991D01*
X142568548Y-92663555D01*
X142582524Y-92646524D01*
X142599555Y-92632548D01*
X142618991Y-92622160D01*
X142640072Y-92615764D01*
X142668140Y-92613000D01*
X144481860Y-92613000D01*
X144509928Y-92615764D01*
G37*
G36*
X149459928Y-92615764D02*
G01*
X149481009Y-92622160D01*
X149500445Y-92632548D01*
X149517476Y-92646524D01*
X149531452Y-92663555D01*
X149541840Y-92682991D01*
X149548236Y-92704072D01*
X149551000Y-92732140D01*
X149551000Y-93195860D01*
X149548236Y-93223928D01*
X149541840Y-93245009D01*
X149531452Y-93264445D01*
X149517476Y-93281476D01*
X149500445Y-93295452D01*
X149481009Y-93305840D01*
X149459928Y-93312236D01*
X149431860Y-93315000D01*
X147618140Y-93315000D01*
X147590072Y-93312236D01*
X147568991Y-93305840D01*
X147549555Y-93295452D01*
X147532524Y-93281476D01*
X147518548Y-93264445D01*
X147508160Y-93245009D01*
X147501764Y-93223928D01*
X147499000Y-93195860D01*
X147499000Y-92732140D01*
X147501764Y-92704072D01*
X147508160Y-92682991D01*
X147518548Y-92663555D01*
X147532524Y-92646524D01*
X147549555Y-92632548D01*
X147568991Y-92622160D01*
X147590072Y-92615764D01*
X147618140Y-92613000D01*
X149431860Y-92613000D01*
X149459928Y-92615764D01*
G37*
G36*
X151841468Y-92127565D02*
G01*
X151880138Y-92139296D01*
X151915777Y-92158346D01*
X151947017Y-92183983D01*
X151972654Y-92215223D01*
X151991704Y-92250862D01*
X152003435Y-92289532D01*
X152008000Y-92335888D01*
X152008000Y-92987112D01*
X152003435Y-93033468D01*
X151991704Y-93072138D01*
X151972654Y-93107777D01*
X151947017Y-93139017D01*
X151915777Y-93164654D01*
X151880138Y-93183704D01*
X151841468Y-93195435D01*
X151795112Y-93200000D01*
X150718888Y-93200000D01*
X150672532Y-93195435D01*
X150633862Y-93183704D01*
X150598223Y-93164654D01*
X150566983Y-93139017D01*
X150541346Y-93107777D01*
X150522296Y-93072138D01*
X150510565Y-93033468D01*
X150506000Y-92987112D01*
X150506000Y-92335888D01*
X150510565Y-92289532D01*
X150522296Y-92250862D01*
X150541346Y-92215223D01*
X150566983Y-92183983D01*
X150598223Y-92158346D01*
X150633862Y-92139296D01*
X150672532Y-92127565D01*
X150718888Y-92123000D01*
X151795112Y-92123000D01*
X151841468Y-92127565D01*
G37*
G36*
X140551000Y-92615000D02*
G01*
X138849000Y-92615000D01*
X138849000Y-90313000D01*
X140551000Y-90313000D01*
X140551000Y-92615000D01*
G37*
G36*
X144509928Y-91345764D02*
G01*
X144531009Y-91352160D01*
X144550445Y-91362548D01*
X144567476Y-91376524D01*
X144581452Y-91393555D01*
X144591840Y-91412991D01*
X144598236Y-91434072D01*
X144601000Y-91462140D01*
X144601000Y-91925860D01*
X144598236Y-91953928D01*
X144591840Y-91975009D01*
X144581452Y-91994445D01*
X144567476Y-92011476D01*
X144550445Y-92025452D01*
X144531009Y-92035840D01*
X144509928Y-92042236D01*
X144481860Y-92045000D01*
X142668140Y-92045000D01*
X142640072Y-92042236D01*
X142618991Y-92035840D01*
X142599555Y-92025452D01*
X142582524Y-92011476D01*
X142568548Y-91994445D01*
X142558160Y-91975009D01*
X142551764Y-91953928D01*
X142549000Y-91925860D01*
X142549000Y-91462140D01*
X142551764Y-91434072D01*
X142558160Y-91412991D01*
X142568548Y-91393555D01*
X142582524Y-91376524D01*
X142599555Y-91362548D01*
X142618991Y-91352160D01*
X142640072Y-91345764D01*
X142668140Y-91343000D01*
X144481860Y-91343000D01*
X144509928Y-91345764D01*
G37*
G36*
X149459928Y-91345764D02*
G01*
X149481009Y-91352160D01*
X149500445Y-91362548D01*
X149517476Y-91376524D01*
X149531452Y-91393555D01*
X149541840Y-91412991D01*
X149548236Y-91434072D01*
X149551000Y-91462140D01*
X149551000Y-91925860D01*
X149548236Y-91953928D01*
X149541840Y-91975009D01*
X149531452Y-91994445D01*
X149517476Y-92011476D01*
X149500445Y-92025452D01*
X149481009Y-92035840D01*
X149459928Y-92042236D01*
X149431860Y-92045000D01*
X147618140Y-92045000D01*
X147590072Y-92042236D01*
X147568991Y-92035840D01*
X147549555Y-92025452D01*
X147532524Y-92011476D01*
X147518548Y-91994445D01*
X147508160Y-91975009D01*
X147501764Y-91953928D01*
X147499000Y-91925860D01*
X147499000Y-91462140D01*
X147501764Y-91434072D01*
X147508160Y-91412991D01*
X147518548Y-91393555D01*
X147532524Y-91376524D01*
X147549555Y-91362548D01*
X147568991Y-91352160D01*
X147590072Y-91345764D01*
X147618140Y-91343000D01*
X149431860Y-91343000D01*
X149459928Y-91345764D01*
G37*
G36*
X158619000Y-91989000D02*
G01*
X157217000Y-91989000D01*
X157217000Y-90237000D01*
X158619000Y-90237000D01*
X158619000Y-91989000D01*
G37*
M02*
