G04 #@! TF.GenerationSoftware,KiCad,Pcbnew,5.1.6-c6e7f7d~86~ubuntu18.04.1*
G04 #@! TF.CreationDate,2020-06-15T00:12:38-04:00*
G04 #@! TF.ProjectId,flashing-led,666c6173-6869-46e6-972d-6c65642e6b69,1.0*
G04 #@! TF.SameCoordinates,Original*
G04 #@! TF.FileFunction,Copper,L2,Bot*
G04 #@! TF.FilePolarity,Positive*
%FSLAX46Y46*%
G04 Gerber Fmt 4.6, Leading zero omitted, Abs format (unit mm)*
G04 Created by KiCad (PCBNEW 5.1.6-c6e7f7d~86~ubuntu18.04.1) date 2020-06-15 00:12:38*
%MOMM*%
%LPD*%
G01*
G04 APERTURE LIST*
G04 #@! TA.AperFunction,ViaPad*
%ADD10C,0.800000*%
G04 #@! TD*
G04 #@! TA.AperFunction,Conductor*
%ADD11C,0.250000*%
G04 #@! TD*
G04 #@! TA.AperFunction,Conductor*
%ADD12C,0.254000*%
G04 #@! TD*
G04 APERTURE END LIST*
D10*
X149479000Y-99822000D03*
X151003000Y-99822000D03*
X146431000Y-99822000D03*
X143383000Y-99822000D03*
X144907000Y-99822000D03*
X147955000Y-99822000D03*
X140335000Y-99822000D03*
X138811000Y-99822000D03*
X141859000Y-99822000D03*
X137287000Y-98298000D03*
X137287000Y-95250000D03*
X137287000Y-92202000D03*
X137287000Y-96774000D03*
X137287000Y-93726000D03*
X137287000Y-90678000D03*
X137287000Y-99822000D03*
X137287000Y-89154000D03*
X147955000Y-89154000D03*
X140335000Y-89154000D03*
X143383000Y-89154000D03*
X138811000Y-89154000D03*
X149479000Y-89154000D03*
X141859000Y-89154000D03*
X144907000Y-89154000D03*
X146431000Y-89154000D03*
X151003000Y-89154000D03*
X152527000Y-89154000D03*
X155575000Y-89154000D03*
X157099000Y-89154000D03*
X154051000Y-89154000D03*
X152527000Y-99822000D03*
X154051000Y-99822000D03*
X155575000Y-99822000D03*
X157099000Y-99822000D03*
X151003000Y-96520000D03*
X158648400Y-96761300D03*
X158648400Y-98285300D03*
X158648400Y-99809300D03*
X158648400Y-95237300D03*
X158648400Y-93713300D03*
X158648400Y-92189300D03*
X158648400Y-89141300D03*
X158648400Y-90665300D03*
X146939000Y-91694000D03*
X145161000Y-95504000D03*
D11*
X146050000Y-94615000D02*
X145161000Y-95504000D01*
X146939000Y-91694000D02*
X146050000Y-92583000D01*
X146050000Y-92583000D02*
X146050000Y-94615000D01*
D12*
G36*
X158725001Y-99924000D02*
G01*
X137185000Y-99924000D01*
X137185000Y-95402061D01*
X144126000Y-95402061D01*
X144126000Y-95605939D01*
X144165774Y-95805898D01*
X144243795Y-95994256D01*
X144357063Y-96163774D01*
X144501226Y-96307937D01*
X144670744Y-96421205D01*
X144859102Y-96499226D01*
X145059061Y-96539000D01*
X145262939Y-96539000D01*
X145462898Y-96499226D01*
X145651256Y-96421205D01*
X145820774Y-96307937D01*
X145964937Y-96163774D01*
X146078205Y-95994256D01*
X146156226Y-95805898D01*
X146196000Y-95605939D01*
X146196000Y-95543802D01*
X146561003Y-95178799D01*
X146590001Y-95155001D01*
X146684974Y-95039276D01*
X146755546Y-94907247D01*
X146799003Y-94763986D01*
X146810000Y-94652333D01*
X146810000Y-94652323D01*
X146813676Y-94615000D01*
X146810000Y-94577677D01*
X146810000Y-92897801D01*
X146978801Y-92729000D01*
X147040939Y-92729000D01*
X147240898Y-92689226D01*
X147429256Y-92611205D01*
X147598774Y-92497937D01*
X147742937Y-92353774D01*
X147856205Y-92184256D01*
X147934226Y-91995898D01*
X147974000Y-91795939D01*
X147974000Y-91592061D01*
X147934226Y-91392102D01*
X147856205Y-91203744D01*
X147742937Y-91034226D01*
X147598774Y-90890063D01*
X147429256Y-90776795D01*
X147240898Y-90698774D01*
X147040939Y-90659000D01*
X146837061Y-90659000D01*
X146637102Y-90698774D01*
X146448744Y-90776795D01*
X146279226Y-90890063D01*
X146135063Y-91034226D01*
X146021795Y-91203744D01*
X145943774Y-91392102D01*
X145904000Y-91592061D01*
X145904000Y-91654199D01*
X145539002Y-92019197D01*
X145509999Y-92042999D01*
X145454871Y-92110174D01*
X145415026Y-92158724D01*
X145344455Y-92290753D01*
X145344454Y-92290754D01*
X145300997Y-92434015D01*
X145290000Y-92545668D01*
X145290000Y-92545678D01*
X145286324Y-92583000D01*
X145290000Y-92620323D01*
X145290001Y-94300197D01*
X145121198Y-94469000D01*
X145059061Y-94469000D01*
X144859102Y-94508774D01*
X144670744Y-94586795D01*
X144501226Y-94700063D01*
X144357063Y-94844226D01*
X144243795Y-95013744D01*
X144165774Y-95202102D01*
X144126000Y-95402061D01*
X137185000Y-95402061D01*
X137185000Y-89052000D01*
X158725000Y-89052000D01*
X158725001Y-99924000D01*
G37*
X158725001Y-99924000D02*
X137185000Y-99924000D01*
X137185000Y-95402061D01*
X144126000Y-95402061D01*
X144126000Y-95605939D01*
X144165774Y-95805898D01*
X144243795Y-95994256D01*
X144357063Y-96163774D01*
X144501226Y-96307937D01*
X144670744Y-96421205D01*
X144859102Y-96499226D01*
X145059061Y-96539000D01*
X145262939Y-96539000D01*
X145462898Y-96499226D01*
X145651256Y-96421205D01*
X145820774Y-96307937D01*
X145964937Y-96163774D01*
X146078205Y-95994256D01*
X146156226Y-95805898D01*
X146196000Y-95605939D01*
X146196000Y-95543802D01*
X146561003Y-95178799D01*
X146590001Y-95155001D01*
X146684974Y-95039276D01*
X146755546Y-94907247D01*
X146799003Y-94763986D01*
X146810000Y-94652333D01*
X146810000Y-94652323D01*
X146813676Y-94615000D01*
X146810000Y-94577677D01*
X146810000Y-92897801D01*
X146978801Y-92729000D01*
X147040939Y-92729000D01*
X147240898Y-92689226D01*
X147429256Y-92611205D01*
X147598774Y-92497937D01*
X147742937Y-92353774D01*
X147856205Y-92184256D01*
X147934226Y-91995898D01*
X147974000Y-91795939D01*
X147974000Y-91592061D01*
X147934226Y-91392102D01*
X147856205Y-91203744D01*
X147742937Y-91034226D01*
X147598774Y-90890063D01*
X147429256Y-90776795D01*
X147240898Y-90698774D01*
X147040939Y-90659000D01*
X146837061Y-90659000D01*
X146637102Y-90698774D01*
X146448744Y-90776795D01*
X146279226Y-90890063D01*
X146135063Y-91034226D01*
X146021795Y-91203744D01*
X145943774Y-91392102D01*
X145904000Y-91592061D01*
X145904000Y-91654199D01*
X145539002Y-92019197D01*
X145509999Y-92042999D01*
X145454871Y-92110174D01*
X145415026Y-92158724D01*
X145344455Y-92290753D01*
X145344454Y-92290754D01*
X145300997Y-92434015D01*
X145290000Y-92545668D01*
X145290000Y-92545678D01*
X145286324Y-92583000D01*
X145290000Y-92620323D01*
X145290001Y-94300197D01*
X145121198Y-94469000D01*
X145059061Y-94469000D01*
X144859102Y-94508774D01*
X144670744Y-94586795D01*
X144501226Y-94700063D01*
X144357063Y-94844226D01*
X144243795Y-95013744D01*
X144165774Y-95202102D01*
X144126000Y-95402061D01*
X137185000Y-95402061D01*
X137185000Y-89052000D01*
X158725000Y-89052000D01*
X158725001Y-99924000D01*
M02*
